<svg height="485pt" viewBox="0 0 485 485" width="485pt" xmlns="http://www.w3.org/2000/svg"><path d="m173.789062 384.199219-75.15625-205.796875c-8.746093 19.59375-13.632812 41.257812-13.632812 64.101562 0 62.292969 36.222656 116.203125 88.789062 141.695313zm0 0"/><path d="m245.289062 256.285156-47.273437 137.316406c14.113281 4.132813 29.03125 6.398438 44.503906 6.398438 18.328125 0 35.917969-3.191406 52.296875-8.957031-.421875-.675781-.804687-1.347657-1.109375-2.152344zm0 0"/><path d="m163.0625 154.179688c8.460938-.484376 9.457031 11.960937.957031 12.992187 0 0-8.496093.980469-18.03125 1.503906l57.371094 170.570313 34.46875-103.355469-24.546875-67.214844c-8.480469-.523437-16.519531-1.5-16.519531-1.5-8.476563-.519531-7.480469-13.480469 1.023437-12.996093 0 0 25.992188 2.015624 41.46875 2.015624 16.457032 0 41.988282-2.015624 41.988282-2.015624 8.480468-.480469 9.476562 11.960937.980468 12.996093 0 0-8.492187.976563-18.019531 1.5l56.9375 169.261719 15.703125-52.480469c7.976562-20.457031 11.980469-37.421875 11.980469-50.894531 0-19.472656-7-32.972656-12.976563-43.453125-7.980468-12.976563-15.460937-23.933594-15.460937-36.929687 0-14.480469 10.957031-27.9375 26.453125-27.9375.671875 0 1.347656.078124 2.019531.136718-28.011719-25.683594-65.324219-41.378906-106.339844-41.378906-55.039062 0-103.453125 28.246094-131.597656 70.988281 3.691406.128907 7.171875.207031 10.128906.207031 16.480469 0 42.011719-2.015624 42.011719-2.015624zm0 0"/><path d="m321.714844 378.625c46.796875-27.300781 78.285156-78.023438 78.285156-136.121094 0-27.398437-6.976562-53.125-19.28125-75.578125.675781 5.054688 1.078125 10.417969 1.078125 16.222657 0 15.964843-3.007813 33.917968-12 56.390624zm0 0"/><path d="m0 0v485h485v-485zm455 455h-425v-425h425zm0 0"/></svg>